<?xml version="1.0" encoding="UTF-8"?>
<svg id="_レイヤー_1" data-name="レイヤー_1" xmlns="http://www.w3.org/2000/svg" viewBox="0 0 500 250">
  <defs>
    <style>
      .cls-1 {
        fill: #d3c2bb;
      }

      .cls-2, .cls-3 {
        fill: #603813;
      }

      .cls-4 {
        fill: #f7b52c;
      }

      .cls-3 {
        stroke: #fbb03b;
        stroke-miterlimit: 10;
        stroke-width: 2px;
      }
    </style>
  </defs>
  <g>
    <path class="cls-4" d="M458.06,169.58s1.22-10.33,8.38-16.64c7.16-6.31,17.56-6.23,17.56-6.23,0,0-1.22,10.33-8.38,16.64-7.16,6.31-17.56,6.23-17.56,6.23Z"/>
    <path class="cls-4" d="M466.52,145.63s-.25-9.35,5.31-15.9c5.56-6.55,14.84-7.81,14.84-7.81,0,0,.25,9.35-5.31,15.9-5.56,6.55-14.84,7.81-14.84,7.81Z"/>
    <path class="cls-4" d="M456.74,164.03s-9-5.2-11.97-14.28c-2.97-9.08,1.23-18.59,1.23-18.59,0,0,9,5.2,11.97,14.28,2.97,9.08-1.23,18.59-1.23,18.59Z"/>
    <path class="cls-4" d="M465.52,124.1c2.43,8.24-1.58,16.69-1.58,16.69,0,0-7.96-4.91-10.4-13.15-2.43-8.24,1.58-16.69,1.58-16.69,0,0,7.97,4.91,10.4,13.15Z"/>
    <path class="cls-4" d="M472.7,121.57s-1.16-7.87,2.86-13.96c4.03-6.09,11.72-8.1,11.72-8.1,0,0,1.16,7.87-2.86,13.96-4.03,6.09-11.72,8.1-11.72,8.1Z"/>
    <path class="cls-4" d="M470.45,101.48c2.63,6.82-.2,14.25-.2,14.25,0,0-7.09-3.61-9.71-10.43-2.63-6.81.19-14.25.19-14.25,0,0,7.09,3.61,9.71,10.43Z"/>
    <path class="cls-4" d="M476.59,99.32s-1.7-6.13.89-11.37c2.6-5.24,8.51-7.59,8.51-7.59,0,0,1.7,6.13-.89,11.37-2.6,5.24-8.51,7.59-8.51,7.59Z"/>
    <path class="cls-4" d="M472.47,82.21c2.51,5.28.71,11.38.71,11.38,0,0-5.87-2.45-8.38-7.73-2.51-5.28-.71-11.38-.71-11.38,0,0,5.87,2.45,8.38,7.73Z"/>
    <path class="cls-4" d="M472.28,70.37c-.81-5.79,2.74-11.07,2.74-11.07,0,0,4.86,4.1,5.67,9.89.81,5.79-2.74,11.07-2.74,11.07,0,0-4.86-4.1-5.67-9.89Z"/>
    <path class="cls-4" d="M410.75,130.37c3.06-9.04,12.12-14.15,12.12-14.15,0,0,4.09,9.56,1.03,18.6-3.06,9.04-12.12,14.15-12.12,14.15,0,0-4.09-9.56-1.03-18.6Z"/>
    <path class="cls-4" d="M405.13,107.73c2.48-8.23,10.47-13.1,10.47-13.1,0,0,3.98,8.47,1.5,16.7-2.48,8.23-10.47,13.1-10.47,13.1,0,0-3.98-8.47-1.5-16.7Z"/>
    <path class="cls-4" d="M408.13,156.67c3,2.95,4.86,6.57,6.01,9.79-.27-3.41-.06-7.48,1.46-11.4,3.64-9.37,13.4-14.32,13.4-14.32,0,0,3.86,10.24.22,19.61-2.58,6.64-8.23,11.06-11.3,13.07-2.91,31.03-14.11,50.62-18.64,57.41,8.78-1.58,27.83-8.35,48.08-36.75-3.01-2.26-8.17-6.9-10.32-13.47-3.12-9.55,1.29-19.57,1.29-19.57,0,0,9.48,5.47,12.6,15.03,1.31,4,1.29,8.07.84,11.46,1.33-3.15,3.38-6.67,6.54-9.45,7.54-6.65,18.48-6.55,18.48-6.55,0,0-1.28,10.87-8.82,17.52-5.21,4.59-12.05,5.97-15.77,6.38-15.13,21.69-29.83,31.56-39.59,36.03-11.06,5.06-18.44,4.58-18.75,4.56-.34-.03-.66-.12-.94-.27-.8-.43-1.31-1.3-1.24-2.26.07-.96,1.79-2.66,2-2.93.16-.2,15.69-20.14,19.4-56.27-3.74-.64-10.34-2.41-15.21-7.19-7.17-7.05-7.85-17.97-7.85-17.97,0,0,10.93.5,18.1,7.55Z"/>
    <path class="cls-4" d="M399.67,128.1c7.1,6.39,8.2,16.73,8.2,16.73,0,0-10.4-.02-17.49-6.41-7.09-6.39-8.2-16.73-8.2-16.73,0,0,10.4.02,17.49,6.41Z"/>
    <path class="cls-4" d="M397.09,105.1c5.53,6.58,5.23,15.93,5.23,15.93,0,0-9.27-1.31-14.8-7.89-5.53-6.58-5.23-15.93-5.23-15.93,0,0,9.27,1.31,14.8,7.89Z"/>
    <path class="cls-4" d="M399.49,87.24c1.34-7.18,7.64-12.03,7.64-12.03,0,0,4.14,6.79,2.8,13.97-1.34,7.18-7.64,12.03-7.64,12.03,0,0-4.14-6.79-2.8-13.97Z"/>
    <path class="cls-4" d="M392.39,83.59c5.08,5.25,5.37,13.2,5.37,13.2,0,0-7.93-.57-13.01-5.82-5.07-5.25-5.37-13.2-5.37-13.2,0,0,7.93.57,13.01,5.82Z"/>
    <path class="cls-4" d="M393.57,69.65c.42-5.83,5-10.25,5-10.25,0,0,3.89,5.03,3.47,10.86-.42,5.83-5,10.25-5,10.25,0,0-3.89-5.03-3.47-10.86Z"/>
    <path class="cls-4" d="M386.75,66.23c4.32,3.94,4.96,10.27,4.96,10.27,0,0-6.36-.05-10.68-3.98-4.32-3.93-4.96-10.27-4.96-10.27,0,0,6.36.05,10.69,3.98Z"/>
    <path class="cls-4" d="M388.62,52.27c2.92,5.06,1.61,11.29,1.61,11.29,0,0-6.05-1.98-8.97-7.04-2.92-5.06-1.61-11.29-1.61-11.29,0,0,6.05,1.98,8.97,7.04Z"/>
  </g>
  <g>
    <path class="cls-1" d="M153.13,231.04c1.2-4.67,2.35-9.02,3.47-13.05,1.12-4.03,2.2-7.89,3.26-11.58,1.06-3.69,2.09-7.27,3.08-10.75,1-3.47,1.95-7,2.87-10.6.36-1.4.57-2.74.63-4.04.06-1.3.25-2.64.57-4.04.16-.48.45-.91.87-1.29.42-.38.89-.71,1.41-.99.52-.28,1.07-.5,1.65-.66.58-.16,1.13-.24,1.65-.24,1.12,0,2.04.13,2.78.39.74.26,1.34.61,1.8,1.05.46.44.78.97.96,1.59.18.62.27,1.31.27,2.06,0,1.36-.22,2.72-.66,4.1-.44,1.38-.98,2.88-1.62,4.52,1.88-1.48,3.8-2.87,5.78-4.19,1.98-1.32,4.01-2.47,6.11-3.47,2.1-1,4.24-1.8,6.44-2.39,2.19-.6,4.47-.9,6.82-.9,1.08,0,2.16.17,3.23.51,1.08.34,2.04.87,2.9,1.59.86.72,1.58,1.66,2.16,2.81.58,1.16.91,2.57.99,4.25,1.72-1.16,3.49-2.32,5.33-3.5,1.84-1.18,3.7-2.24,5.6-3.17,1.89-.94,3.79-1.7,5.69-2.27,1.9-.58,3.74-.87,5.54-.87,2.67,0,4.88.35,6.62,1.05,1.74.7,3.11,1.64,4.13,2.81,1.02,1.18,1.74,2.54,2.16,4.1.42,1.56.63,3.21.63,4.97,0,1.92-.18,3.89-.54,5.93s-.76,3.97-1.2,5.81c-1.16,4.63-2.45,9.01-3.89,13.14-1.44,4.13-2.99,8.31-4.67,12.54-.4,1-.82,2.06-1.26,3.17-.44,1.12-.95,2.15-1.53,3.08-.58.94-1.26,1.72-2.04,2.33-.78.62-1.69.93-2.72.93-2.36,0-3.97-.4-4.85-1.2-.88-.8-1.32-1.94-1.32-3.41,0-.4.02-.86.06-1.38.04-.52.14-1.02.3-1.5.16-.6.52-1.47,1.08-2.6.56-1.14,1.17-2.36,1.83-3.68.66-1.32,1.31-2.64,1.95-3.98.64-1.34,1.12-2.5,1.44-3.5.52-1.72,1.13-3.7,1.83-5.96.7-2.25,1.37-4.53,2.01-6.82.64-2.29,1.17-4.47,1.59-6.53.42-2.06.63-3.72.63-5,0-.6-.06-1.2-.18-1.8s-.33-1.12-.63-1.56c-.3-.44-.72-.8-1.26-1.08-.54-.28-1.23-.42-2.07-.42-1.2,0-2.62.34-4.28,1.02-1.66.68-3.37,1.57-5.15,2.66-1.78,1.1-3.5,2.33-5.18,3.71-1.68,1.38-3.11,2.74-4.31,4.1-.84.96-1.64,1.74-2.39,2.34-.76.6-1.52,1.06-2.27,1.38-.08.16-.28.69-.6,1.59-.32.9-.7,1.98-1.14,3.23-.44,1.26-.9,2.61-1.38,4.07-.48,1.46-.93,2.81-1.35,4.07-.42,1.26-.77,2.32-1.05,3.17-.28.86-.42,1.33-.42,1.41-.28,1.12-.52,2.27-.72,3.44-.2,1.18-.38,2.31-.54,3.38-.16,1.08-.31,2.23-.45,3.44-.14,1.22-.42,2.36-.84,3.41-.42,1.06-1.06,1.93-1.92,2.6-.86.68-2.07,1.02-3.62,1.02-.8,0-1.53-.2-2.19-.6-.66-.4-1.23-.91-1.71-1.53-.48-.62-.86-1.32-1.14-2.09-.28-.78-.44-1.57-.48-2.36.92-3.59,1.82-6.83,2.69-9.7.88-2.87,1.76-5.63,2.63-8.26.88-2.63,1.73-5.28,2.54-7.93.82-2.65,1.63-5.58,2.42-8.77.2-.76.36-1.51.48-2.24.12-.74.18-1.39.18-1.95,0-.96-.2-1.75-.6-2.36-.4-.62-1.1-.93-2.1-.93-1.64,0-3.26.33-4.88.99-1.62.66-3.36,1.69-5.24,3.08-1.88,1.4-3.96,3.17-6.26,5.33-2.3,2.16-4.94,4.73-7.93,7.72-.32.6-.74,1.72-1.26,3.35-.52,1.64-1.05,3.37-1.59,5.21-.54,1.84-1.03,3.54-1.47,5.12-.44,1.58-.72,2.63-.84,3.14-.44,1.68-.74,3.08-.9,4.22-.16,1.14-.3,2.16-.42,3.08-.08.48-.2,1.27-.36,2.36-.16,1.1-.45,2.21-.87,3.32-.42,1.12-1.01,2.1-1.77,2.96-.76.86-1.76,1.29-2.99,1.29-1.84,0-3.34-.5-4.52-1.5-1.18-1-1.77-2.25-1.77-3.77,0-.28.02-.54.06-.78.04-.24.1-.5.18-.78Z"/>
    <path class="cls-1" d="M258.98,212.06c.6-2.43,1.53-5.02,2.78-7.75,1.26-2.73,2.9-5.5,4.94-8.29,2.04-2.79,4.48-5.53,7.33-8.2,2.85-2.67,6.16-5.17,9.91-7.48.6-.36,1.52-.75,2.75-1.17,1.24-.42,2.51-.67,3.83-.75,1.56-1.68,3.65-2.51,6.29-2.51,3.11,0,5.74.79,7.87,2.36,2.13,1.58,3.9,3.72,5.3,6.44.44.88.85,1.74,1.23,2.57.38.84.7,1.73.96,2.66.26.94.47,1.95.63,3.02.16,1.08.24,2.3.24,3.65,0,3.15-.5,6.37-1.5,9.64-1,3.27-2.42,6.47-4.25,9.58-1.84,3.11-4.06,6.1-6.68,8.95-2.61,2.85-5.52,5.42-8.71,7.69-2.16,1.56-4.54,2.76-7.15,3.62-2.61.86-5.54,1.29-8.77,1.29s-5.74-.41-7.99-1.23c-2.26-.82-4.13-1.98-5.63-3.5-1.5-1.52-2.61-3.33-3.35-5.45-.74-2.12-1.11-4.47-1.11-7.06s.36-5.21,1.08-8.08ZM268.91,212.84c-.24.92-.41,1.79-.51,2.6-.1.82-.15,1.61-.15,2.37,0,1.32.17,2.54.51,3.68.34,1.14.89,2.12,1.65,2.93.76.82,1.71,1.46,2.84,1.92,1.14.46,2.52.69,4.16.69,3.03,0,5.86-.77,8.47-2.3,2.61-1.54,4.94-3.46,6.97-5.78,2.04-2.31,3.74-4.8,5.12-7.45,1.38-2.65,2.34-5.1,2.9-7.33.36-1.4.67-2.71.93-3.95.26-1.24.39-2.37.39-3.41s-.19-2.01-.57-2.9c-.38-.9-.87-1.91-1.47-3.02-.36-.68-.72-1.39-1.08-2.13-.36-.74-.68-1.47-.96-2.19-.32.56-.66,1.05-1.02,1.47-.36.42-.9.8-1.62,1.14-.72.34-1.7.65-2.93.93-1.24.28-2.85.52-4.85.72-1.32.44-2.65,1.12-4.01,2.04-1.36.92-2.68,2-3.98,3.23-1.3,1.24-2.54,2.57-3.71,4.01-1.18,1.44-2.24,2.9-3.17,4.4-.94,1.5-1.76,2.96-2.45,4.4-.7,1.44-1.19,2.75-1.47,3.95Z"/>
    <path class="cls-1" d="M334.47,240.5c-1,0-1.89-.19-2.66-.57-.78-.38-1.44-.9-1.98-1.56-.54-.66-.96-1.41-1.26-2.25-.3-.84-.45-1.74-.45-2.69,0-.68.08-1.43.24-2.24.16-.82.4-1.81.72-2.96.12-.52.3-1.3.54-2.33.24-1.04.48-2.22.72-3.53.24-1.32.49-2.71.75-4.19.26-1.48.5-2.91.72-4.31.22-1.4.39-2.69.51-3.89s.18-2.19.18-2.99c0-.52-.02-.86-.06-1.02-.08-.6-.51-1.01-1.29-1.23-.78-.22-1.62-.46-2.51-.72-.9-.26-1.72-.68-2.45-1.26-.74-.58-1.11-1.53-1.11-2.84,0-1.08.25-2.1.75-3.05.5-.96,1.15-1.64,1.95-2.03.92-.44,1.95-.68,3.08-.72,1.14-.04,2.27-.16,3.38-.36.64-.08,1.09-.46,1.35-1.14.26-.68.47-1.34.63-1.98.48-1.84,1-3.82,1.56-5.96.56-2.13,1.21-4.31,1.95-6.53.74-2.22,1.56-4.38,2.45-6.5.9-2.12,1.91-4.07,3.02-5.87,1.8-2.43,3.72-4.71,5.78-6.82,2.06-2.12,4.25-3.96,6.59-5.54,2.34-1.58,4.81-2.81,7.42-3.71,2.61-.9,5.4-1.35,8.35-1.35,3.55,0,6.44.6,8.68,1.8,2.24,1.2,4.05,2.99,5.45,5.39.32.56.54,1.13.66,1.71.12.58.18,1.17.18,1.77,0,1.08-.15,2.09-.45,3.02-.3.94-.71,1.76-1.23,2.45-.52.7-1.13,1.25-1.83,1.65-.7.4-1.43.6-2.19.6-1.08,0-1.92-.22-2.51-.66s-1.09-.98-1.47-1.62c-.38-.64-.68-1.35-.9-2.13-.22-.78-.46-1.49-.72-2.13-.26-.64-.61-1.18-1.05-1.62-.44-.44-1.06-.66-1.86-.66s-1.71.1-2.72.3c-1.02.2-1.99.54-2.9,1.02-2.43,1.28-4.69,2.71-6.77,4.28-2.08,1.58-4,3.58-5.78,6.02-1.78,2.44-3.41,5.41-4.91,8.92-1.5,3.51-2.88,7.84-4.16,12.99-.04.08-.08.18-.12.3-.04.12-.06.2-.06.24,0,.08.16.12.48.12,1.2,0,2.34-.07,3.44-.21,1.1-.14,2.19-.3,3.26-.48,1.08-.18,2.16-.34,3.26-.48,1.1-.14,2.26-.21,3.5-.21.92,0,1.77.04,2.57.12.8.08,1.49.25,2.07.51.58.26,1.04.63,1.38,1.11.34.48.51,1.12.51,1.92,0,.48-.07,1.07-.21,1.77-.14.7-.36,1.38-.66,2.04-.3.66-.68,1.25-1.14,1.77-.46.52-1.03.84-1.71.96-1.2.24-2.43.43-3.71.57-1.28.14-2.67.3-4.19.48-1.52.18-3.19.44-5.03.78-1.84.34-3.89.83-6.17,1.47-.72,2.71-1.27,5.4-1.65,8.05-.38,2.65-.71,5.3-.99,7.93-.28,2.63-.59,5.28-.93,7.93-.34,2.66-.83,5.32-1.47,7.99-.12.52-.33,1.04-.63,1.56-.3.52-.66.99-1.08,1.41-.42.42-.9.76-1.44,1.02-.54.26-1.11.39-1.71.39Z"/>
    <path class="cls-1" d="M382.18,181.71c.16-.64.39-1.19.69-1.65.3-.46.62-.83.96-1.11.34-.28.65-.48.93-.6.28-.12.5-.18.66-.18.44,0,.96.05,1.56.15.6.1,1.18.19,1.74.27.64.12,1.26.24,1.86.36,1.04.04,1.79.46,2.24,1.26.46.8.69,1.76.69,2.87,0,.88-.12,1.7-.36,2.45-1.36,4.99-2.6,9.33-3.71,13.02-1.12,3.69-2.06,6.84-2.84,9.43-.78,2.59-1.38,4.71-1.8,6.35-.42,1.64-.63,2.87-.63,3.71s.11,1.78.33,2.81c.22,1.04.55,2.01.99,2.9.44.9,1,1.65,1.68,2.24.68.6,1.5.9,2.45.9,1.68,0,3.37-.52,5.09-1.56,1.72-1.04,3.35-2.3,4.91-3.8,1.56-1.5,2.96-3.09,4.22-4.79,1.26-1.7,2.28-3.2,3.08-4.52l1.56-2.69c.96-1.68,1.84-3.6,2.66-5.78.82-2.17,1.54-4.36,2.16-6.56.62-2.2,1.15-4.26,1.59-6.2.44-1.94.78-3.48,1.02-4.64l1.56-7.96c.32-1.52.81-2.56,1.47-3.14.66-.58,1.77-.87,3.32-.87,1,0,1.9.11,2.69.33.8.22,1.48.61,2.04,1.17.56.56.98,1.31,1.26,2.24.28.94.42,2.15.42,3.62,0,1.72-.27,3.82-.81,6.32-.54,2.49-1.13,5-1.77,7.51-.36,1.48-.73,3.04-1.11,4.7-.38,1.66-.72,3.31-1.02,4.97-.3,1.66-.54,3.23-.72,4.73-.18,1.5-.27,2.84-.27,4.04,0,2.04.07,4.07.21,6.11.14,2.04.21,4.19.21,6.47,0,1.04-.03,1.96-.09,2.75-.06.8-.15,1.4-.27,1.8-.44,1.56-1.01,2.71-1.71,3.47-.7.76-1.89,1.14-3.56,1.14-1.16,0-2.08-.13-2.75-.39-.68-.26-1.21-.61-1.59-1.05-.38-.44-.63-.93-.75-1.47-.12-.54-.2-1.09-.24-1.65l-.66-11.32-.54.18c-1.32,1.68-2.75,3.55-4.31,5.63-1.56,2.08-3.27,4.01-5.15,5.81-1.88,1.8-3.92,3.3-6.14,4.52-2.22,1.22-4.62,1.83-7.21,1.83-.52,0-1.19-.13-2.01-.39-.82-.26-1.67-.59-2.54-.99-.88-.4-1.72-.85-2.51-1.35-.8-.5-1.44-.97-1.92-1.41-2.2-2.03-3.75-4.33-4.67-6.88-.92-2.55-1.38-5.15-1.38-7.78,0-1.48.12-2.95.36-4.43.24-1.48.52-2.9.84-4.28.32-1.38.67-2.67,1.05-3.89.38-1.22.69-2.3.93-3.26.76-2.99,1.44-5.63,2.04-7.9.6-2.28,1.13-4.27,1.59-5.99.46-1.72.85-3.18,1.17-4.4.32-1.22.6-2.28.84-3.2Z"/>
    <path class="cls-2" d="M141.37,228.54c1.2-4.67,2.35-9.02,3.47-13.05,1.12-4.03,2.2-7.89,3.26-11.58,1.06-3.69,2.09-7.27,3.08-10.75,1-3.47,1.95-7,2.87-10.6.36-1.4.57-2.74.63-4.04.06-1.3.25-2.64.57-4.04.16-.48.45-.91.87-1.29.42-.38.89-.71,1.41-.99.52-.28,1.07-.5,1.65-.66.58-.16,1.13-.24,1.65-.24,1.12,0,2.04.13,2.78.39.74.26,1.34.61,1.8,1.05.46.44.78.97.96,1.59.18.62.27,1.31.27,2.06,0,1.36-.22,2.72-.66,4.1-.44,1.38-.98,2.88-1.62,4.52,1.88-1.48,3.8-2.87,5.78-4.19,1.98-1.32,4.01-2.47,6.11-3.47,2.1-1,4.24-1.8,6.44-2.39,2.19-.6,4.47-.9,6.82-.9,1.08,0,2.16.17,3.23.51,1.08.34,2.04.87,2.9,1.59.86.72,1.58,1.66,2.16,2.81.58,1.16.91,2.57.99,4.25,1.72-1.16,3.49-2.32,5.33-3.5,1.84-1.18,3.7-2.24,5.6-3.17,1.89-.94,3.79-1.7,5.69-2.27,1.9-.58,3.74-.87,5.54-.87,2.67,0,4.88.35,6.62,1.05,1.74.7,3.11,1.64,4.13,2.81,1.02,1.18,1.74,2.54,2.16,4.1.42,1.56.63,3.21.63,4.97,0,1.92-.18,3.89-.54,5.93s-.76,3.97-1.2,5.81c-1.16,4.63-2.45,9.01-3.89,13.14-1.44,4.13-2.99,8.31-4.67,12.54-.4,1-.82,2.06-1.26,3.17-.44,1.12-.95,2.15-1.53,3.08-.58.94-1.26,1.72-2.04,2.33-.78.62-1.69.93-2.72.93-2.36,0-3.97-.4-4.85-1.2-.88-.8-1.32-1.94-1.32-3.41,0-.4.02-.86.06-1.38.04-.52.14-1.02.3-1.5.16-.6.52-1.47,1.08-2.6.56-1.14,1.17-2.36,1.83-3.68.66-1.32,1.31-2.64,1.95-3.98.64-1.34,1.12-2.5,1.44-3.5.52-1.72,1.13-3.7,1.83-5.96.7-2.25,1.37-4.53,2.01-6.82.64-2.29,1.17-4.47,1.59-6.53.42-2.06.63-3.72.63-5,0-.6-.06-1.2-.18-1.8s-.33-1.12-.63-1.56c-.3-.44-.72-.8-1.26-1.08-.54-.28-1.23-.42-2.07-.42-1.2,0-2.62.34-4.28,1.02-1.66.68-3.37,1.57-5.15,2.66-1.78,1.1-3.5,2.33-5.18,3.71-1.68,1.38-3.11,2.74-4.31,4.1-.84.96-1.64,1.74-2.39,2.34-.76.6-1.52,1.06-2.27,1.38-.08.16-.28.69-.6,1.59-.32.9-.7,1.98-1.14,3.23-.44,1.26-.9,2.61-1.38,4.07-.48,1.46-.93,2.81-1.35,4.07-.42,1.26-.77,2.32-1.05,3.17-.28.86-.42,1.33-.42,1.41-.28,1.12-.52,2.27-.72,3.44-.2,1.18-.38,2.31-.54,3.38-.16,1.08-.31,2.23-.45,3.44-.14,1.22-.42,2.36-.84,3.41-.42,1.06-1.06,1.93-1.92,2.6-.86.68-2.07,1.02-3.62,1.02-.8,0-1.53-.2-2.19-.6-.66-.4-1.23-.91-1.71-1.53-.48-.62-.86-1.32-1.14-2.09-.28-.78-.44-1.57-.48-2.36.92-3.59,1.82-6.83,2.69-9.7.88-2.87,1.76-5.63,2.63-8.26.88-2.63,1.73-5.28,2.54-7.93.82-2.65,1.63-5.58,2.42-8.77.2-.76.36-1.51.48-2.24.12-.74.18-1.39.18-1.95,0-.96-.2-1.75-.6-2.36-.4-.62-1.1-.93-2.1-.93-1.64,0-3.26.33-4.88.99-1.62.66-3.36,1.69-5.24,3.08-1.88,1.4-3.96,3.17-6.26,5.33-2.3,2.16-4.94,4.73-7.93,7.72-.32.6-.74,1.72-1.26,3.35-.52,1.64-1.05,3.37-1.59,5.21-.54,1.84-1.03,3.54-1.47,5.12-.44,1.58-.72,2.63-.84,3.14-.44,1.68-.74,3.08-.9,4.22-.16,1.14-.3,2.16-.42,3.08-.08.48-.2,1.27-.36,2.36-.16,1.1-.45,2.21-.87,3.32-.42,1.12-1.01,2.1-1.77,2.96-.76.86-1.76,1.29-2.99,1.29-1.84,0-3.34-.5-4.52-1.5-1.18-1-1.77-2.25-1.77-3.77,0-.28.02-.54.06-.78.04-.24.1-.5.18-.78Z"/>
    <path class="cls-2" d="M247.22,209.56c.6-2.43,1.53-5.02,2.78-7.75,1.26-2.73,2.9-5.5,4.94-8.29,2.04-2.79,4.48-5.53,7.33-8.2,2.85-2.67,6.16-5.17,9.91-7.48.6-.36,1.52-.75,2.75-1.17,1.24-.42,2.51-.67,3.83-.75,1.56-1.68,3.65-2.51,6.29-2.51,3.11,0,5.74.79,7.87,2.36,2.13,1.58,3.9,3.72,5.3,6.44.44.88.85,1.74,1.23,2.57.38.84.7,1.73.96,2.66.26.94.47,1.95.63,3.02.16,1.08.24,2.3.24,3.65,0,3.15-.5,6.37-1.5,9.64-1,3.27-2.42,6.47-4.25,9.58-1.84,3.11-4.06,6.1-6.68,8.95-2.61,2.85-5.52,5.42-8.71,7.69-2.16,1.56-4.54,2.76-7.15,3.62-2.61.86-5.54,1.29-8.77,1.29s-5.74-.41-7.99-1.23c-2.26-.82-4.13-1.98-5.63-3.5-1.5-1.52-2.61-3.33-3.35-5.45-.74-2.12-1.11-4.47-1.11-7.06s.36-5.21,1.08-8.08ZM257.15,210.34c-.24.92-.41,1.79-.51,2.6-.1.82-.15,1.61-.15,2.37,0,1.32.17,2.54.51,3.68.34,1.14.89,2.12,1.65,2.93.76.82,1.71,1.46,2.84,1.92,1.14.46,2.52.69,4.16.69,3.03,0,5.86-.77,8.47-2.3,2.61-1.54,4.94-3.46,6.97-5.78,2.04-2.31,3.74-4.8,5.12-7.45,1.38-2.65,2.34-5.1,2.9-7.33.36-1.4.67-2.71.93-3.95.26-1.24.39-2.37.39-3.41s-.19-2.01-.57-2.9c-.38-.9-.87-1.91-1.47-3.02-.36-.68-.72-1.39-1.08-2.13-.36-.74-.68-1.47-.96-2.19-.32.56-.66,1.05-1.02,1.47-.36.42-.9.8-1.62,1.14-.72.34-1.7.65-2.93.93-1.24.28-2.85.52-4.85.72-1.32.44-2.65,1.12-4.01,2.04-1.36.92-2.68,2-3.98,3.23-1.3,1.24-2.54,2.57-3.71,4.01-1.18,1.44-2.24,2.9-3.17,4.4-.94,1.5-1.76,2.96-2.45,4.4-.7,1.44-1.19,2.75-1.47,3.95Z"/>
    <path class="cls-2" d="M322.71,238c-1,0-1.89-.19-2.66-.57-.78-.38-1.44-.9-1.98-1.56-.54-.66-.96-1.41-1.26-2.25-.3-.84-.45-1.74-.45-2.69,0-.68.08-1.43.24-2.24.16-.82.4-1.81.72-2.96.12-.52.3-1.3.54-2.33.24-1.04.48-2.22.72-3.53.24-1.32.49-2.71.75-4.19.26-1.48.5-2.91.72-4.31.22-1.4.39-2.69.51-3.89s.18-2.19.18-2.99c0-.52-.02-.86-.06-1.02-.08-.6-.51-1.01-1.29-1.23-.78-.22-1.62-.46-2.51-.72-.9-.26-1.72-.68-2.45-1.26-.74-.58-1.11-1.53-1.11-2.84,0-1.08.25-2.1.75-3.05.5-.96,1.15-1.64,1.95-2.03.92-.44,1.95-.68,3.08-.72,1.14-.04,2.27-.16,3.38-.36.64-.08,1.09-.46,1.35-1.14.26-.68.47-1.34.63-1.98.48-1.84,1-3.82,1.56-5.96.56-2.13,1.21-4.31,1.95-6.53.74-2.22,1.56-4.38,2.45-6.5.9-2.12,1.91-4.07,3.02-5.87,1.8-2.43,3.72-4.71,5.78-6.82,2.06-2.12,4.25-3.96,6.59-5.54,2.34-1.58,4.81-2.81,7.42-3.71,2.61-.9,5.4-1.35,8.35-1.35,3.55,0,6.44.6,8.68,1.8,2.24,1.2,4.05,2.99,5.45,5.39.32.56.54,1.13.66,1.71.12.58.18,1.17.18,1.77,0,1.08-.15,2.09-.45,3.02-.3.94-.71,1.76-1.23,2.45-.52.7-1.13,1.25-1.83,1.65-.7.4-1.43.6-2.19.6-1.08,0-1.92-.22-2.51-.66s-1.09-.98-1.47-1.62c-.38-.64-.68-1.35-.9-2.13-.22-.78-.46-1.49-.72-2.13-.26-.64-.61-1.18-1.05-1.62-.44-.44-1.06-.66-1.86-.66s-1.71.1-2.72.3c-1.02.2-1.99.54-2.9,1.02-2.43,1.28-4.69,2.71-6.77,4.28-2.08,1.58-4,3.58-5.78,6.02-1.78,2.44-3.41,5.41-4.91,8.92-1.5,3.51-2.88,7.84-4.16,12.99-.04.08-.08.18-.12.3-.04.12-.06.2-.06.24,0,.08.16.12.48.12,1.2,0,2.34-.07,3.44-.21,1.1-.14,2.19-.3,3.26-.48,1.08-.18,2.16-.34,3.26-.48,1.1-.14,2.26-.21,3.5-.21.92,0,1.77.04,2.57.12.8.08,1.49.25,2.07.51.58.26,1.04.63,1.38,1.11.34.48.51,1.12.51,1.92,0,.48-.07,1.07-.21,1.77-.14.7-.36,1.38-.66,2.04-.3.66-.68,1.25-1.14,1.77-.46.52-1.03.84-1.71.96-1.2.24-2.43.43-3.71.57-1.28.14-2.67.3-4.19.48-1.52.18-3.19.44-5.03.78-1.84.34-3.89.83-6.17,1.47-.72,2.71-1.27,5.4-1.65,8.05-.38,2.65-.71,5.3-.99,7.93-.28,2.63-.59,5.28-.93,7.93-.34,2.66-.83,5.32-1.47,7.99-.12.52-.33,1.04-.63,1.56-.3.52-.66.99-1.08,1.41-.42.42-.9.76-1.44,1.02-.54.26-1.11.39-1.71.39Z"/>
    <path class="cls-2" d="M370.42,179.21c.16-.64.39-1.19.69-1.65.3-.46.62-.83.96-1.11.34-.28.65-.48.93-.6.28-.12.5-.18.66-.18.44,0,.96.05,1.56.15.6.1,1.18.19,1.74.27.64.12,1.26.24,1.86.36,1.04.04,1.79.46,2.24,1.26.46.8.69,1.76.69,2.87,0,.88-.12,1.7-.36,2.45-1.36,4.99-2.6,9.33-3.71,13.02-1.12,3.69-2.06,6.84-2.84,9.43-.78,2.59-1.38,4.71-1.8,6.35-.42,1.64-.63,2.87-.63,3.71s.11,1.78.33,2.81c.22,1.04.55,2.01.99,2.9.44.9,1,1.65,1.68,2.24.68.6,1.5.9,2.45.9,1.68,0,3.37-.52,5.09-1.56,1.72-1.04,3.35-2.3,4.91-3.8,1.56-1.5,2.96-3.09,4.22-4.79,1.26-1.7,2.28-3.2,3.08-4.52l1.56-2.69c.96-1.68,1.84-3.6,2.66-5.78.82-2.17,1.54-4.36,2.16-6.56.62-2.2,1.15-4.26,1.59-6.2.44-1.94.78-3.48,1.02-4.64l1.56-7.96c.32-1.52.81-2.56,1.47-3.14.66-.58,1.77-.87,3.32-.87,1,0,1.9.11,2.69.33.8.22,1.48.61,2.04,1.17.56.56.98,1.31,1.26,2.24.28.94.42,2.15.42,3.62,0,1.72-.27,3.82-.81,6.32-.54,2.49-1.13,5-1.77,7.51-.36,1.48-.73,3.04-1.11,4.7-.38,1.66-.72,3.31-1.02,4.97-.3,1.66-.54,3.23-.72,4.73-.18,1.5-.27,2.84-.27,4.04,0,2.04.07,4.07.21,6.11.14,2.04.21,4.19.21,6.47,0,1.04-.03,1.96-.09,2.75-.06.8-.15,1.4-.27,1.8-.44,1.56-1.01,2.71-1.71,3.47-.7.76-1.89,1.14-3.56,1.14-1.16,0-2.08-.13-2.75-.39-.68-.26-1.21-.61-1.59-1.05-.38-.44-.63-.93-.75-1.47-.12-.54-.2-1.09-.24-1.65l-.66-11.32-.54.18c-1.32,1.68-2.75,3.55-4.31,5.63-1.56,2.08-3.27,4.01-5.15,5.81-1.88,1.8-3.92,3.3-6.14,4.52-2.22,1.22-4.62,1.83-7.21,1.83-.52,0-1.19-.13-2.01-.39-.82-.26-1.67-.59-2.54-.99-.88-.4-1.72-.85-2.51-1.35-.8-.5-1.44-.97-1.92-1.41-2.2-2.03-3.75-4.33-4.67-6.88-.92-2.55-1.38-5.15-1.38-7.78,0-1.48.12-2.95.36-4.43.24-1.48.52-2.9.84-4.28.32-1.38.67-2.67,1.05-3.89.38-1.22.69-2.3.93-3.26.76-2.99,1.44-5.63,2.04-7.9.6-2.28,1.13-4.27,1.59-5.99.46-1.72.85-3.18,1.17-4.4.32-1.22.6-2.28.84-3.2Z"/>
  </g>
  <g>
    <path class="cls-4" d="M40.19,159.31s.54-10.38-5.45-17.82c-5.99-7.43-16.26-9.1-16.26-9.1,0,0-.54,10.38,5.45,17.82,5.99,7.43,16.26,9.1,16.26,9.1Z"/>
    <path class="cls-4" d="M35.9,134.28s1.83-9.18-2.55-16.57c-4.38-7.39-13.3-10.2-13.3-10.2,0,0-1.83,9.18,2.55,16.57,4.38,7.39,13.3,10.21,13.3,10.21Z"/>
    <path class="cls-4" d="M42.43,154.07s9.75-3.61,14.21-12.05c4.46-8.44,1.93-18.53,1.93-18.53,0,0-9.75,3.61-14.21,12.05-4.46,8.44-1.93,18.53-1.93,18.53Z"/>
    <path class="cls-4" d="M40.52,113.23c-3.79,7.71-1.26,16.72-1.26,16.72,0,0,8.68-3.5,12.47-11.21,3.79-7.71,1.26-16.72,1.26-16.72,0,0-8.68,3.5-12.47,11.21Z"/>
    <path class="cls-4" d="M33.86,109.52s2.48-7.56-.47-14.25c-2.94-6.69-10.19-9.97-10.19-9.97,0,0-2.47,7.56.47,14.24,2.94,6.69,10.19,9.97,10.19,9.97Z"/>
    <path class="cls-4" d="M39.47,90.1c-3.74,6.27-2.21,14.08-2.21,14.08,0,0,7.59-2.37,11.33-8.64,3.74-6.27,2.21-14.08,2.21-14.08,0,0-7.59,2.37-11.34,8.64Z"/>
    <path class="cls-4" d="M33.78,86.94s2.71-5.76,1.04-11.35c-1.68-5.6-7.1-8.92-7.1-8.92,0,0-2.71,5.76-1.04,11.35,1.67,5.6,7.1,8.92,7.1,8.92Z"/>
    <path class="cls-4" d="M40.73,70.76c-3.37,4.78-2.62,11.1-2.62,11.1,0,0,6.2-1.43,9.57-6.2,3.37-4.78,2.62-11.1,2.62-11.1,0,0-6.2,1.43-9.57,6.2Z"/>
    <path class="cls-4" d="M42.92,59.13c1.77-5.57-.84-11.37-.84-11.37,0,0-5.49,3.22-7.26,8.79-1.77,5.57.84,11.37.84,11.37,0,0,5.49-3.22,7.26-8.79Z"/>
    <path class="cls-4" d="M93.44,128.65c-1.49-9.43-9.56-15.99-9.56-15.99,0,0-5.65,8.73-4.15,18.16,1.49,9.43,9.56,15.99,9.56,15.99,0,0,5.65-8.73,4.15-18.16Z"/>
    <path class="cls-4" d="M102.8,107.28c-1.05-8.53-8.11-14.68-8.11-14.68,0,0-5.35,7.68-4.3,16.21,1.05,8.53,8.11,14.68,8.11,14.68,0,0,5.35-7.68,4.3-16.21Z"/>
    <path class="cls-4" d="M91.59,155.01c-3.45,2.4-5.9,5.66-7.58,8.64.84-3.32,1.32-7.36.49-11.48-2-9.85-10.79-16.38-10.79-16.38,0,0-5.54,9.44-3.53,19.29,1.42,6.98,6.24,12.29,8.93,14.79-2.37,31.08,5.37,52.27,8.69,59.74-8.39-3.04-26.03-12.93-41.19-44.33,3.35-1.72,9.21-5.42,12.44-11.54,4.69-8.89,2.03-19.51,2.03-19.51,0,0-10.27,3.8-14.96,12.69-1.96,3.72-2.64,7.74-2.76,11.15-.78-3.33-2.21-7.14-4.85-10.42-6.31-7.82-17.11-9.58-17.11-9.58,0,0-.57,10.93,5.74,18.75,4.36,5.41,10.87,7.91,14.47,8.95,11.25,23.93,24.08,36.14,32.94,42.19,10.04,6.85,17.4,7.62,17.71,7.65.34.03.67,0,.97-.11.86-.29,1.51-1.06,1.6-2.02.09-.96-1.32-2.92-1.48-3.22-.12-.23-12.06-22.5-9.63-58.74,3.79,0,10.6-.63,16.2-4.52,8.25-5.74,10.77-16.39,10.77-16.39,0,0-10.86-1.35-19.11,4.39Z"/>
    <path class="cls-4" d="M104.74,128.28c-8.07,5.1-10.91,15.11-10.91,15.11,0,0,10.25,1.73,18.32-3.37,8.07-5.1,10.91-15.1,10.91-15.1,0,0-10.25-1.73-18.32,3.37Z"/>
    <path class="cls-4" d="M111.17,106.04c-6.56,5.55-7.84,14.82-7.84,14.82,0,0,9.35.27,15.91-5.28,6.56-5.55,7.85-14.82,7.85-14.82,0,0-9.35-.27-15.92,5.28Z"/>
    <path class="cls-4" d="M111.81,88.03c-.11-7.3-5.5-13.15-5.5-13.15,0,0-5.22,6-5.12,13.3.11,7.3,5.5,13.15,5.5,13.15,0,0,5.23-6,5.12-13.3Z"/>
    <path class="cls-4" d="M119.43,85.64c-5.89,4.32-7.52,12.11-7.52,12.11,0,0,7.92.78,13.81-3.54,5.89-4.32,7.52-12.1,7.52-12.1,0,0-7.92-.78-13.81,3.54Z"/>
    <path class="cls-4" d="M120.62,71.7c.57-5.82-3.2-10.94-3.2-10.94,0,0-4.69,4.3-5.26,10.12-.57,5.82,3.2,10.94,3.2,10.94,0,0,4.69-4.3,5.26-10.12Z"/>
    <path class="cls-4" d="M127.92,69.47c-4.92,3.15-6.62,9.28-6.62,9.28,0,0,6.28,1.03,11.2-2.12,4.92-3.15,6.62-9.28,6.62-9.28,0,0-6.28-1.03-11.2,2.12Z"/>
    <path class="cls-4" d="M128.43,55.4c-3.73,4.49-3.49,10.85-3.49,10.85,0,0,6.3-.93,10.03-5.42,3.73-4.49,3.5-10.85,3.5-10.85,0,0-6.3.93-10.03,5.42Z"/>
  </g>
  <g>
    <path class="cls-3" d="M137.32,110.02c0,4.59-1.37,9.31-4.11,14.16-2.74,4.85-7.1,9.38-13.1,13.59-1.87,1.28-4.14,2.66-6.81,4.16-2.67,1.5-5.57,3.01-8.7,4.55-3.13,1.53-6.41,3.01-9.86,4.45-3.45,1.44-6.93,2.69-10.44,3.78-3.51,1.08-6.94,1.96-10.29,2.63-3.35.67-6.51,1-9.47,1-1.48,0-2.75-.11-3.82-.34-1.06-.22-2.05-.62-2.95-1.2-.9-.58-1.77-1.37-2.61-2.39-.84-1.02-1.74-2.3-2.71-3.83-1.55,1.15-3.17,1.99-4.88,2.54-1.71.54-3.43.81-5.17.81h-2.71c-.52,0-1-.18-1.45-.53-.45-.35-.85-.78-1.21-1.29-.35-.51-.63-1.07-.82-1.67-.19-.61-.29-1.2-.29-1.77,0-3.25.47-6.36,1.4-9.33.93-2.97,2.01-5.92,3.24-8.85,1.8-5.42,3.64-11.11,5.51-17.08,1.87-5.96,3.67-11.94,5.41-17.94,1.74-6,3.4-11.91,4.98-17.75,1.58-5.84,3.04-11.37,4.4-16.6l2.71-11.1c0-.19-.03-.73-.1-1.63-.07-.89-.15-1.87-.24-2.92-.1-1.05-.18-2.02-.24-2.92l-.1-1.24.48-1.63-.1.1c.32-1.15.77-2.46,1.35-3.92s1.29-2.84,2.13-4.12c.84-1.28,1.75-2.34,2.75-3.21,1-.86,2.08-1.29,3.24-1.29,1.09,0,2.5.08,4.2.24,1.71.16,3.24.24,4.59.24.64,0,1.27-.03,1.88-.1.61-.06,1.39-.22,2.32-.48.93-.25,2.16-.62,3.67-1.1,1.51-.48,3.49-1.13,5.94-1.96,3.67-1.28,7.04-2.34,10.1-3.21,3.06-.86,5.96-1.56,8.7-2.11,2.74-.54,5.4-.94,7.97-1.2,2.58-.25,5.22-.38,7.92-.38,3.41,0,6.72.32,9.91.96,3.19.64,6.02,1.67,8.5,3.11,2.48,1.43,4.46,3.32,5.94,5.64,1.48,2.33,2.22,5.15,2.22,8.47,0,5.68-1.51,10.78-4.54,15.31-3.03,4.53-7.31,8.74-12.85,12.63-5.54,3.89-12.19,7.51-19.96,10.86-7.76,3.35-16.41,6.65-25.95,9.9,7.6,1.15,14.16,2.5,19.67,4.07,5.51,1.56,10.07,3.4,13.68,5.5,3.61,2.1,6.28,4.5,8.02,7.18s2.61,5.74,2.61,9.19ZM104.46,101.22c-.64-.13-1.82-.35-3.53-.67-1.71-.32-3.71-.67-5.99-1.05-2.29-.38-4.75-.78-7.39-1.2-2.64-.41-5.16-.83-7.54-1.24-2.38-.41-4.56-.81-6.52-1.2-1.97-.38-3.4-.7-4.3-.96-2.45,7.85-4.59,15.36-6.43,22.53-1.84,7.18-3.69,14.4-5.56,21.67l6.38.67c1.48.13,2.79.24,3.91.34,1.13.1,1.79.14,1.98.14,2.58-.25,5.41-.75,8.5-1.48,3.09-.73,6.3-1.66,9.62-2.78,3.32-1.11,6.68-2.42,10.1-3.92,3.41-1.5,6.77-3.11,10.05-4.83,1.22-.77,2.51-1.69,3.87-2.78,1.35-1.08,2.58-2.28,3.67-3.59,1.09-1.31,2-2.69,2.71-4.16.71-1.47,1.06-2.97,1.06-4.5,0-2.55-1.35-4.77-4.06-6.65-2.71-1.88-6.22-3.33-10.53-4.35ZM73.92,79.02c3.61-1.15,7.41-2.5,11.4-4.07,3.99-1.56,8.1-3.27,12.32-5.12,4.22-1.85,8.5-3.81,12.85-5.88,4.35-2.07,8.68-4.16,13-6.27h-.1c1.55-.83,3.08-1.83,4.59-3.01,1.51-1.18,2.87-2.45,4.06-3.83,1.19-1.37,2.16-2.81,2.9-4.31.74-1.5,1.11-2.98,1.11-4.45,0-.96-.23-1.91-.68-2.87-.45-.96-1.16-1.82-2.13-2.58s-2.24-1.37-3.82-1.82c-1.58-.45-3.53-.67-5.85-.67-3.22,0-6.86.4-10.92,1.2-4.06.8-7.99,1.8-11.79,3.01-3.8,1.21-7.19,2.55-10.15,4.02-2.96,1.47-4.93,2.87-5.9,4.21-.19.32-.47,1.02-.82,2.1-.35,1.09-.76,2.28-1.21,3.59-.45,1.31-.92,2.57-1.4,3.78-.48,1.21-.95,2.11-1.4,2.68-.13.64-.39,1.61-.77,2.92-.39,1.31-.85,2.85-1.4,4.64-.55,1.79-1.16,3.76-1.84,5.93-.68,2.17-1.37,4.43-2.08,6.79Z"/>
    <path class="cls-2" d="M179.78,131.02c0-1.25.15-2.75.45-4.5.3-1.75.45-3.92.45-6.51-1.42,1.04-3,2.27-4.73,3.69s-3.52,2.78-5.37,4.08c-1.86,1.3-3.7,2.39-5.54,3.27-1.84.89-3.55,1.33-5.15,1.33-1.3,0-2.53-.19-3.69-.58-1.17-.39-2.16-.91-2.98-1.55-2.29-1.81-3.94-3.63-4.95-5.44-1.01-1.81-1.52-3.93-1.52-6.35,0-1.08.1-2.2.29-3.37.19-1.16.49-2.5.87-4.01,1.64-6.82,4.46-13.13,8.45-18.94,3.99-5.81,8.95-10.76,14.86-14.86,2.29-1.6,4.58-2.62,6.86-3.08,2.29-.45,4.55-.68,6.8-.68.99,0,2.1.06,3.33.19,1.23.13,2.34.26,3.33.39.99-.22,1.8-.37,2.43-.45.63-.09,1.28-.13,1.98-.13,1.3,0,2.37.17,3.24.52.86.35,1.55.81,2.07,1.39.52.58.9,1.25,1.13,2.01.24.76.36,1.54.36,2.36,0,1.12-.17,2.19-.52,3.21-.35,1.01-.69,2.04-1.04,3.08l-8.55,34.13c-.17,1.86-.32,3.56-.45,5.12s-.39,3-.78,4.34c-.13.39-.29.87-.49,1.46-.19.58-.51,1.14-.94,1.68-.43.54-.97,1-1.62,1.39-.65.39-1.49.58-2.52.58-1.34,0-2.41-.09-3.21-.26-.8-.17-1.41-.42-1.85-.74-.43-.32-.71-.71-.84-1.17-.13-.45-.19-.98-.19-1.59ZM158.28,111.46c-.17.61-.36,1.47-.55,2.59-.19,1.12-.29,2.25-.29,3.37s.17,2.21.52,3.14c.34.93,1.1,1.39,2.27,1.39,1.81,0,3.51-.4,5.08-1.2,1.58-.8,3.05-1.76,4.44-2.88,1.86-1.51,3.75-3.21,5.67-5.08,1.92-1.88,3.73-3.85,5.44-5.92,1.7-2.07,3.21-4.2,4.53-6.38,1.32-2.18,2.28-4.35,2.88-6.51.34-1.25.64-2.7.87-4.34.24-1.64.36-3.11.36-4.4,0-.56-.13-1.11-.39-1.65-.26-.54-.76-.81-1.49-.81-2.12,0-4.24.41-6.38,1.23-2.14.82-4.2,1.92-6.18,3.3-1.99,1.38-3.88,3.01-5.67,4.89-1.79,1.88-3.42,3.89-4.89,6.02-1.47,2.14-2.73,4.34-3.79,6.6-1.06,2.27-1.87,4.48-2.43,6.64Z"/>
    <path class="cls-2" d="M239.8,102.46c-.86,0-1.84.21-2.91.61-1.08.41-2.16.9-3.24,1.46-1.08.56-2.12,1.14-3.11,1.75-.99.61-1.86,1.08-2.59,1.43l-5.89,23.31c-.22.91-.76,1.6-1.62,2.07-.86.47-1.66.71-2.4.71-2.33,0-3.92-.46-4.76-1.39-.84-.93-1.26-2.15-1.26-3.66,0-.65.05-1.3.16-1.98.11-.67.25-1.37.42-2.1l.26-1.1c.26-1.17.61-2.63,1.07-4.4.45-1.77.94-3.64,1.46-5.6.52-1.96,1.05-3.95,1.59-5.96.54-2.01,1.05-3.85,1.52-5.54.47-1.64,1.18-4.08,2.1-7.32.93-3.24,1.96-6.86,3.11-10.88,1.14-4.02,2.33-8.21,3.56-12.59,1.23-4.38,2.4-8.56,3.5-12.53,1.1-3.97,2.08-7.5,2.95-10.59.86-3.09,1.47-5.36,1.81-6.83.39-.6.99-1.1,1.81-1.49.82-.39,1.79-.58,2.91-.58.78,0,1.58.1,2.4.29.82.19,1.56.5,2.23.91.67.41,1.22.93,1.65,1.55.43.63.65,1.35.65,2.17,0,.56-.13,1.23-.39,2.01-2.59,7.51-5.16,15.29-7.71,23.34-2.55,8.05-4.86,16.2-6.93,24.45.56-.35,1.6-1.06,3.11-2.14,1.51-1.08,3.18-2.33,5.02-3.76,1.83-1.42,3.68-2.91,5.54-4.47,1.86-1.55,3.41-2.96,4.66-4.21.86-.86,1.74-1.76,2.62-2.69.88-.93,1.73-1.81,2.53-2.66.8-.84,1.5-1.6,2.1-2.27.6-.67,1.08-1.2,1.42-1.59.82-.95,1.72-1.74,2.69-2.36.97-.62,1.95-.94,2.95-.94s1.81.15,2.59.45c.78.3,1.45.68,2.01,1.13.56.45.99.97,1.3,1.55.3.58.45,1.13.45,1.65,0,.65-.15,1.34-.45,2.07-.3.73-.66,1.45-1.07,2.14-.41.69-.85,1.33-1.33,1.91-.48.58-.89,1.03-1.23,1.33-1.17,1.04-2.48,2.17-3.95,3.4-1.47,1.23-3,2.48-4.6,3.76-1.6,1.27-3.23,2.55-4.89,3.82-1.66,1.27-3.27,2.49-4.82,3.66,2.72,1.51,4.95,3.53,6.7,6.05,1.75,2.53,3.14,5.33,4.18,8.42,1.04,3.09,1.75,6.34,2.14,9.75.39,3.41.58,6.73.58,9.97,0,.26-.02.66-.07,1.2-.04.54-.13,1.05-.26,1.52-.22.78-.48,1.49-.78,2.14-.3.65-.7,1.2-1.2,1.65-.5.45-1.1.81-1.81,1.07-.71.26-1.59.39-2.62.39s-1.84-.17-2.53-.52c-.69-.35-1.26-.8-1.72-1.36-.45-.56-.79-1.19-1-1.88-.22-.69-.32-1.38-.32-2.07,0-2.16-.06-4.39-.19-6.7-.13-2.31-.39-4.54-.78-6.7-.39-2.16-.92-4.2-1.59-6.12-.67-1.92-1.54-3.57-2.62-4.95-.78-.99-1.5-1.77-2.17-2.33-.67-.56-1.48-.84-2.43-.84h-.52Z"/>
    <path class="cls-2" d="M275.61,108.81c0-1.86.5-3.43,1.49-4.73.99-1.3,2.31-2.16,3.95-2.59.47-.95,1.21-2.23,2.2-3.85.99-1.62,2.22-3.38,3.69-5.28,1.47-1.9,3.14-3.81,5.02-5.73,1.88-1.92,3.95-3.67,6.22-5.24,2.27-1.58,4.7-2.86,7.32-3.85,2.61-.99,5.38-1.49,8.32-1.49,2.5,0,4.68.3,6.54.91,1.86.61,3.39,1.45,4.6,2.53,1.21,1.08,2.11,2.36,2.72,3.85.6,1.49.91,3.1.91,4.82,0,1.47-.19,2.87-.58,4.21-.6,2.42-1.73,4.53-3.37,6.35s-3.57,3.4-5.8,4.76c-2.22,1.36-4.64,2.49-7.25,3.4-2.61.91-5.22,1.66-7.83,2.27-2.61.61-5.13,1.07-7.54,1.39-2.42.32-4.51.57-6.28.74-.39.78-.72,1.76-1,2.95-.28,1.19-.42,2.34-.42,3.46,0,2.5.99,4.45,2.98,5.83,1.99,1.38,4.73,2.07,8.22,2.07,2.03,0,3.97-.23,5.83-.68,1.86-.45,3.61-1.04,5.28-1.75,1.66-.71,3.23-1.49,4.69-2.33,1.47-.84,2.81-1.67,4.01-2.49,1.55-1.04,3.03-1.91,4.44-2.62,1.4-.71,2.64-1.07,3.72-1.07s1.77.27,2.07.81c.3.54.45,1.11.45,1.72,0,.35-.01.68-.03,1-.02.32-.05.59-.1.81-.22,1.12-.65,2.25-1.3,3.37-.65,1.12-1.47,2.09-2.46,2.91-4.49,3.54-9.1,6.07-13.83,7.58-4.73,1.51-9.77,2.27-15.12,2.27-1.04,0-2.26-.07-3.66-.19-1.4-.13-2.86-.39-4.37-.78-1.51-.39-3-.95-4.47-1.68-1.47-.73-2.78-1.7-3.92-2.91-1.14-1.21-2.07-2.7-2.78-4.47-.71-1.77-1.07-3.91-1.07-6.41,0-2.03.28-4.29.84-6.8-.56-.09-1.09-.38-1.59-.87-.5-.5-.74-1.22-.74-2.17ZM316.15,90.87c.09-.22.13-.41.13-.58v-.58c0-1.16-.43-2.04-1.3-2.62-.86-.58-1.9-.87-3.11-.87-1.9,0-3.77.5-5.6,1.49-1.84.99-3.56,2.23-5.18,3.72-1.62,1.49-3.05,3.09-4.31,4.79-1.25,1.71-2.22,3.25-2.91,4.63,3.11-.26,5.96-.68,8.55-1.26,2.59-.58,4.85-1.32,6.77-2.2,1.92-.88,3.47-1.88,4.66-2.98,1.19-1.1,1.95-2.28,2.3-3.53Z"/>
    <path class="cls-2" d="M343.35,127.13c.56-3.02,1.21-6.35,1.94-9.97.73-3.63,1.49-7.29,2.27-11.01s1.53-7.36,2.27-10.94c.73-3.58,1.36-6.86,1.88-9.84-.04-.43-.07-.81-.07-1.13v-1.07c0-1.34.09-2.68.26-4.01.17-1.34.41-2.57.71-3.69.47-1.64,1-2.75,1.59-3.33.58-.58,1.52-.87,2.82-.87s2.26.25,3.01.74c.76.5,1.35,1.16,1.78,1.98.43.82.71,1.76.84,2.82.13,1.06.19,2.15.19,3.27,0,.61-.02,1.27-.07,2.01-.04.73-.07,1.32-.07,1.75,1.21-1.25,2.49-2.54,3.85-3.85,1.36-1.32,2.81-2.5,4.34-3.56,1.53-1.06,3.15-1.93,4.86-2.62,1.7-.69,3.49-1.04,5.34-1.04.73,0,1.46.06,2.17.19.71.13,1.43.3,2.17.52.86.22,1.76.51,2.69.87.93.37,1.82.87,2.69,1.52,1.42,1.08,2.62,2.43,3.59,4.05.97,1.62,1.46,3.27,1.46,4.95,0,.65-.13,1.35-.39,2.1-.26.76-.62,1.45-1.07,2.07-.45.63-.98,1.14-1.59,1.55-.61.41-1.27.61-2.01.61s-1.63-.18-2.69-.55c-1.06-.37-1.93-.85-2.62-1.46-.3-.26-.61-.62-.94-1.1-.32-.47-.63-.95-.91-1.42-.28-.47-.54-.92-.78-1.33-.24-.41-.42-.68-.55-.81-.22-.04-.45-.07-.71-.1-.26-.02-.5-.03-.71-.03-2.2,0-4.3.56-6.28,1.68-1.99,1.12-3.84,2.49-5.57,4.11-1.73,1.62-3.31,3.35-4.76,5.18-1.45,1.84-2.71,3.49-3.79,4.95-.86,3.5-1.82,7.22-2.88,11.17-1.06,3.95-2.1,8.08-3.14,12.4v1.62c0,1.3-.04,2.61-.13,3.95-.09,1.34-.35,2.52-.78,3.56-.48.65-1.16,1.2-2.04,1.65-.89.45-1.91.68-3.08.68-1.81,0-3.17-.59-4.08-1.78s-1.36-2.58-1.36-4.18c0-.73.11-1.49.32-2.27Z"/>
    <path class="cls-2" d="M398.13,163.72c-.65,0-1.23-.17-1.75-.52-.52-.35-.96-.8-1.33-1.36-.37-.56-.66-1.18-.87-1.85-.22-.67-.32-1.33-.32-1.98,0-.82.11-1.53.32-2.14.22-.61.49-1.13.81-1.59.32-.45.67-.81,1.04-1.07.37-.26.7-.45,1-.58,1.04-.26,2.24-.54,3.63-.84,1.38-.3,2.88-.74,4.5-1.33,1.62-.58,3.34-1.34,5.18-2.27,1.83-.93,3.72-2.15,5.67-3.66,1.94-1.51,3.98-3.27,6.12-5.28,2.14-2.01,4.2-4.36,6.18-7.06,1.98-2.7,3.84-5.78,5.57-9.26,1.73-3.47,3.15-7.46,4.27-11.95-.82.91-1.76,1.93-2.82,3.08-1.06,1.14-2.19,2.31-3.4,3.5-1.21,1.19-2.46,2.33-3.76,3.43-1.3,1.1-2.59,2.09-3.89,2.98-1.3.89-2.56,1.59-3.79,2.1-1.23.52-2.39.78-3.46.78-2.89,0-5.35-.66-7.38-1.98-2.03-1.32-3.91-3.49-5.63-6.51-.48-.86-.84-1.98-1.1-3.37-.26-1.38-.39-2.78-.39-4.21,0-2.33.11-4.6.32-6.8s.54-4.49.97-6.86c.43-2.37.94-4.87,1.52-7.48.58-2.61,1.24-5.49,1.98-8.64.04-.82.11-1.6.19-2.33.09-.6.14-1.19.16-1.75.02-.56.05-.91.1-1.04.09-.73.33-1.42.75-2.07.41-.65.91-1.21,1.49-1.68.58-.47,1.21-.84,1.88-1.1.67-.26,1.33-.39,1.98-.39.91,0,1.81.08,2.72.23.91.15,1.62.49,2.14,1,.73.78,1.28,1.79,1.65,3.04.37,1.25.55,2.38.55,3.37,0,.39-.18,1.17-.55,2.33-.37,1.17-.9,2.38-1.59,3.63-1.04,3.89-1.88,7.18-2.53,9.88-.65,2.7-1.16,4.94-1.52,6.73-.37,1.79-.63,3.22-.78,4.27-.15,1.06-.23,1.87-.23,2.43,0,2.33.39,4.19,1.17,5.57s1.73,2.07,2.85,2.07c.65,0,1.39-.13,2.23-.39.84-.26,1.74-.69,2.69-1.3,3.63-2.24,6.74-4.69,9.36-7.35,2.61-2.65,4.86-5.59,6.73-8.81,1.88-3.21,3.5-6.74,4.86-10.59,1.36-3.84,2.6-8.07,3.72-12.69.09-.3.29-.6.61-.91.32-.3.71-.56,1.17-.78.45-.22.94-.4,1.46-.55.52-.15,1.01-.23,1.49-.23,2.29,0,4.05.61,5.28,1.85s1.85,2.88,1.85,4.95c0,.78-.19,2.03-.58,3.75-.39,1.73-.84,3.55-1.36,5.47-.52,1.92-1.05,3.76-1.59,5.5-.54,1.75-.96,3.03-1.26,3.85l-3.11,9c-1.42,4.06-2.71,7.79-3.85,11.2-1.14,3.41-2.36,6.6-3.66,9.55-1.3,2.96-2.75,5.75-4.37,8.39-1.62,2.63-3.57,5.2-5.86,7.71-2.29,2.5-5.01,5.02-8.16,7.54-3.15,2.52-6.91,5.15-11.27,7.87-2.68,1.6-5.3,2.9-7.87,3.92-2.57,1.01-5.28,1.52-8.13,1.52Z"/>
  </g>
</svg>